{
  "accessors": [
    {
      "bufferView": 2,
      "componentType": 5126,
      "count": 563,
      "max": [
        1.0108469724655151,
        1.021914005279541,
        10.493783950805664
      ],
      "min": [
        -1.009384036064148,
        -1.0240310430526733,
        8.948257446289063
      ],
      "type": "VEC3"
    },
    {
      "bufferView": 2,
      "byteOffset": 6756,
      "componentType": 5126,
      "count": 563,
      "max": [
        0.99997478723526,
        0.9999853372573853,
        0.8895350098609924
      ],
      "min": [
        -0.9999702572822571,
        -0.9999875426292419,
        -1.0
      ],
      "type": "VEC3"
    },
    {
      "bufferView": 1,
      "componentType": 5126,
      "count": 563,
      "max": [
        0.959555983543396,
        0.6220549941062927
      ],
      "min": [
        0.6878989934921265,
        0.015111000277101994
      ],
      "type": "VEC2"
    },
    {
      "bufferView": 0,
      "componentType": 5125,
      "count": 1740,
      "type": "SCALAR"
    },
    {
      "bufferView": 2,
      "byteOffset": 13512,
      "componentType": 5126,
      "count": 899,
      "max": [
        1.0,
        1.0,
        19.00788688659668
      ],
      "min": [
        -1.0,
        -1.0,
        10.493703842163086
      ],
      "type": "VEC3"
    },
    {
      "bufferView": 2,
      "byteOffset": 24300,
      "componentType": 5126,
      "count": 899,
      "max": [
        1.0,
        1.0,
        1.0
      ],
      "min": [
        -1.0,
        -1.0,
        -1.0
      ],
      "type": "VEC3"
    },
    {
      "bufferView": 1,
      "byteOffset": 4504,
      "componentType": 5126,
      "count": 899,
      "max": [
        0.9773420095443726,
        0.9817659854888916
      ],
      "min": [
        0.017450999468564987,
        0.035771001130342484
      ],
      "type": "VEC2"
    },
    {
      "bufferView": 0,
      "byteOffset": 6960,
      "componentType": 5125,
      "count": 3780,
      "type": "SCALAR"
    }
  ],
  "asset": {
    "extras": {
      "author": "zelmore402 (https://sketchfab.com/zelmore402)",
      "license": "CC-BY-4.0 (http://creativecommons.org/licenses/by/4.0/)",
      "source": "https://sketchfab.com/3d-models/hanging-bulb-light-6472a85d29e146218c8260b727985a81",
      "title": "Hanging Bulb Light"
    },
    "generator": "Sketchfab-15.31.0",
    "version": "2.0"
  },
  "bufferViews": [
    {
      "buffer": 0,
      "byteLength": 22080,
      "name": "floatBufferViews",
      "target": 34963
    },
    {
      "buffer": 0,
      "byteLength": 11696,
      "byteOffset": 22080,
      "byteStride": 8,
      "name": "floatBufferViews",
      "target": 34962
    },
    {
      "buffer": 0,
      "byteLength": 35088,
      "byteOffset": 33776,
      "byteStride": 12,
      "name": "floatBufferViews",
      "target": 34962
    }
  ],
  "buffers": [
    {
      "byteLength": 68864,
      "uri": "scene.bin"
    }
  ],
  "extensionsUsed": [
    "KHR_materials_emissive_strength",
    "KHR_materials_clearcoat"
  ],
  "materials": [
    {
      "doubleSided": true,
      "name": "phong1SG",
      "pbrMetallicRoughness": {
        "baseColorFactor": [
          0.0,
          0.0,
          0.0,
          1.0
        ],
        "metallicFactor": 0.5,
        "roughnessFactor": 0.22133096024673604
      }
    },
    {
      "doubleSided": true,
      "extensions": {
        "KHR_materials_clearcoat": {
          "clearcoatFactor": 1.0,
          "clearcoatRoughnessFactor": 0.059428752544769654
        },
        "KHR_materials_emissive_strength": {
          "emissiveStrength": 10.0
        }
      },
      "name": "phong2SG",
      "pbrMetallicRoughness": {
        "metallicFactor": 0.0,
        "roughnessFactor": 0.40685838280649994
      }
    }
  ],
  "meshes": [
    {
      "name": "Object_0",
      "primitives": [
        {
          "attributes": {
            "NORMAL": 1,
            "POSITION": 0,
            "TEXCOORD_0": 2
          },
          "indices": 3,
          "material": 1,
          "mode": 4
        }
      ]
    },
    {
      "name": "Object_1",
      "primitives": [
        {
          "attributes": {
            "NORMAL": 5,
            "POSITION": 4,
            "TEXCOORD_0": 6
          },
          "indices": 7,
          "material": 0,
          "mode": 4
        }
      ]
    }
  ],
  "nodes": [
    {
      "children": [
        1
      ],
      "matrix": [
        1.0,
        0.0,
        0.0,
        0.0,
        0.0,
        2.220446049250313e-16,
        -1.0,
        0.0,
        0.0,
        1.0,
        2.220446049250313e-16,
        0.0,
        0.0,
        0.0,
        0.0,
        1.0
      ],
      "name": "Sketchfab_model"
    },
    {
      "children": [
        2,
        3
      ],
      "name": "BlLght.obj.cleaner.materialmerger.gles"
    },
    {
      "mesh": 0,
      "name": "Object_2"
    },
    {
      "mesh": 1,
      "name": "Object_3"
    }
  ],
  "scene": 0,
  "scenes": [
    {
      "name": "Sketchfab_Scene",
      "nodes": [
        0
      ]
    }
  ]
}
